<?xml version="1.0" standalone="no"?>
<!DOCTYPE svg PUBLIC "-//W3C//DTD SVG 20010904//EN"
 "http://www.w3.org/TR/2001/REC-SVG-20010904/DTD/svg10.dtd">
<svg version="1.0" xmlns="http://www.w3.org/2000/svg"
 width="541.000000pt" height="541.000000pt" viewBox="0 0 541.000000 541.000000"
 preserveAspectRatio="xMidYMid meet">
<metadata>
Created by potrace 1.14, written by Peter Selinger 2001-2017
</metadata>
<g transform="translate(0.000000,541.000000) scale(0.100000,-0.100000)"
fill="#000000" stroke="none">
<path d="M1655 4204 c-5 -1 -36 -7 -67 -14 -84 -17 -162 -72 -235 -167 -14
-18 -30 -30 -36 -26 -6 3 -7 1 -3 -5 5 -9 -52 -111 -74 -132 -3 -3 -52 -75
-110 -160 -150 -224 -212 -314 -223 -321 -5 -3 -9 -10 -9 -15 0 -9 -44 -76
-115 -175 -24 -32 -43 -64 -43 -69 0 -6 -3 -10 -7 -10 -5 0 -21 -23 -38 -50
-16 -28 -33 -50 -37 -50 -4 0 -8 -7 -8 -15 0 -8 -3 -15 -8 -15 -4 0 -13 -14
-20 -30 -8 -17 -18 -28 -23 -24 -5 3 -8 2 -7 -3 5 -13 -61 -113 -74 -113 -6 0
-8 -3 -5 -6 4 -4 -36 -69 -88 -145 -52 -76 -110 -160 -127 -186 -18 -26 -36
-49 -40 -51 -4 -2 -8 -8 -8 -12 0 -5 -33 -58 -73 -117 -98 -144 -104 -159 -95
-211 4 -23 14 -49 23 -58 8 -9 13 -20 10 -25 -4 -5 1 -6 9 -3 9 3 16 2 16 -4
0 -8 45 -32 75 -39 6 -1 30 -7 55 -14 25 -6 63 -12 85 -14 26 -2 39 -8 37 -16
-3 -10 0 -10 12 0 9 7 48 13 93 14 43 1 81 7 85 12 5 6 8 5 8 -2 0 -7 5 -13
11 -13 5 0 7 5 4 10 -4 6 6 10 22 11 15 0 37 4 48 9 14 5 26 2 40 -9 18 -15
19 -15 6 2 -12 15 -11 17 10 19 13 0 30 1 36 1 7 -1 10 3 7 8 -3 5 2 10 10 10
22 2 25 3 71 24 22 10 42 19 45 20 3 0 17 9 32 19 15 10 33 14 39 10 7 -4 10
-3 7 2 -3 5 0 15 8 22 8 7 14 11 14 9 0 -8 83 78 109 113 14 19 28 37 31 40 3
3 11 17 19 32 8 15 23 37 33 48 10 11 16 20 13 20 -3 0 0 6 7 14 7 8 16 12 20
10 4 -2 10 1 14 7 4 8 3 9 -4 5 -20 -12 -13 10 8 29 11 10 20 23 20 29 0 6 13
25 30 42 16 18 27 34 24 36 -2 3 7 17 20 31 14 15 23 27 20 27 -2 0 8 18 22
40 15 22 31 40 35 40 5 0 8 3 7 8 -4 13 49 82 57 74 5 -4 5 -1 1 6 -5 8 1 20
14 32 12 10 21 22 21 27 -1 4 3 8 8 8 5 0 13 4 18 9 5 5 3 6 -4 2 -22 -12 -15
2 43 89 l56 85 18 -23 c9 -12 26 -39 37 -59 11 -21 23 -35 27 -31 3 3 6 2 6
-4 0 -6 20 -40 45 -76 29 -43 43 -72 39 -84 -5 -15 -4 -15 5 -3 8 12 11 12 17
-4 4 -10 18 -30 31 -44 13 -14 21 -32 18 -39 -3 -8 0 -11 6 -8 6 4 13 -2 16
-14 3 -12 9 -21 14 -21 5 0 9 -5 9 -11 0 -5 -5 -7 -12 -3 -7 4 -8 3 -4 -5 4
-6 12 -9 17 -6 5 4 12 -2 16 -12 4 -10 9 -20 13 -23 17 -14 49 -68 43 -74 -3
-3 -1 -6 6 -6 7 0 9 -5 5 -12 -4 -6 -3 -8 3 -5 6 4 18 -4 27 -18 9 -14 14 -25
12 -25 -3 0 6 -12 19 -26 14 -15 25 -33 25 -40 0 -8 5 -14 10 -14 6 0 15 -11
20 -25 14 -36 62 -86 77 -81 7 3 13 1 13 -5 0 -6 5 -7 13 -2 17 11 77 12 77 0
0 -5 6 -5 13 2 10 8 17 7 27 -2 7 -6 10 -7 7 -1 -7 13 91 13 112 0 9 -6 12 -5
8 1 -4 5 6 10 23 10 18 0 27 -4 23 -11 -4 -6 1 -5 10 3 14 11 17 11 17 0 0
-10 3 -10 12 -1 9 9 15 9 27 -1 8 -6 12 -7 8 -1 -4 7 8 10 33 10 22 0 40 -4
40 -9 0 -5 6 -5 13 2 10 8 17 7 27 -2 7 -6 10 -7 7 -1 -4 7 5 11 23 11 18 0
27 -4 23 -11 -4 -6 1 -5 10 3 13 10 17 10 17 1 0 -9 3 -10 13 -1 10 8 17 7 27
-2 7 -6 10 -7 7 -1 -8 13 91 13 112 -1 9 -5 12 -4 8 2 -4 5 6 10 23 10 18 0
27 -4 23 -11 -4 -6 1 -5 10 3 13 10 17 10 17 1 0 -9 3 -10 13 -1 10 8 17 7 27
-2 7 -6 10 -7 7 -1 -4 7 10 10 45 9 38 -1 55 3 66 16 8 9 22 15 31 12 13 -4
13 -3 2 5 -16 12 -6 32 17 33 10 0 12 3 5 6 -9 3 -4 16 14 44 14 21 29 36 34
34 4 -3 11 0 15 6 4 8 3 9 -4 5 -18 -11 -14 8 6 30 10 10 21 27 25 37 3 9 10
17 16 17 5 0 11 9 14 21 3 12 10 18 15 15 6 -4 8 3 4 16 -3 12 -1 19 4 15 6
-3 15 7 22 22 7 15 21 37 32 49 11 12 20 24 20 28 0 14 38 53 45 46 5 -4 5 -1
0 7 -4 7 -3 16 2 20 5 3 24 30 42 58 18 30 38 50 44 46 6 -3 7 -1 3 5 -6 9 61
122 83 142 3 3 11 14 17 24 6 11 15 21 20 23 12 4 100 -134 96 -150 -2 -7 -1
-9 3 -5 11 11 37 -20 29 -33 -4 -7 -3 -9 3 -6 5 3 17 -10 28 -29 10 -19 22
-34 27 -34 4 0 8 -9 8 -21 0 -11 5 -17 10 -14 9 5 15 -15 11 -38 0 -4 4 -6 11
-5 12 3 59 -72 52 -83 -2 -4 1 -11 7 -15 8 -5 9 -3 4 7 -8 12 -6 12 8 0 9 -7
15 -17 12 -21 -3 -4 2 -10 10 -14 8 -3 15 -12 15 -21 0 -8 5 -15 10 -15 6 0
10 -7 10 -15 0 -8 5 -15 10 -15 6 0 10 -7 10 -15 0 -8 4 -15 8 -15 5 0 15 -12
23 -27 8 -16 17 -30 20 -33 3 -3 29 -36 59 -75 29 -38 72 -90 96 -115 24 -25
45 -49 46 -55 2 -5 6 -9 11 -8 4 2 16 -6 28 -18 17 -17 18 -23 7 -36 -12 -14
-11 -15 7 -4 17 11 26 10 58 -9 20 -12 37 -26 37 -31 0 -5 3 -8 8 -8 21 4 42
-2 38 -10 -4 -5 4 -7 16 -3 12 3 19 1 15 -4 -3 -5 7 -10 21 -9 15 0 26 -5 25
-10 -1 -7 12 -9 33 -7 24 3 39 -1 52 -15 9 -10 13 -13 7 -5 -8 12 -4 13 25 7
19 -4 38 -13 42 -19 6 -8 8 -7 8 2 0 9 5 10 18 4 9 -5 26 -8 37 -6 11 1 23 -2
27 -9 5 -7 8 -8 8 -2 0 6 15 10 33 8 66 -6 207 -8 207 -3 0 5 33 10 92 13 14
1 24 5 22 8 -2 4 9 9 25 12 16 3 36 13 44 22 9 8 20 15 25 15 5 0 14 12 21 28
8 15 18 35 23 46 7 12 6 16 -1 11 -7 -4 -11 3 -11 17 0 13 -7 34 -15 48 -8 14
-17 32 -21 40 -4 8 -23 38 -43 65 -21 28 -73 104 -116 170 -44 66 -82 122 -85
125 -3 3 -41 59 -85 125 -44 66 -82 122 -85 125 -3 3 -30 41 -59 85 -30 44
-91 133 -135 199 -45 65 -89 130 -98 145 -10 14 -23 33 -29 42 -7 10 -11 20
-10 24 1 3 -7 14 -17 24 -11 9 -28 30 -38 47 -11 17 -38 59 -61 92 -24 34 -43
64 -43 67 0 4 -6 13 -14 20 -15 16 -226 326 -241 356 -5 10 -13 19 -17 19 -5
0 -8 6 -8 14 0 8 -3 16 -7 18 -5 2 -23 26 -42 53 -108 158 -266 235 -411 200
-14 -3 -30 -7 -35 -8 -17 -4 -118 -65 -140 -84 -25 -23 -95 -108 -95 -116 0
-6 -49 -75 -84 -118 -8 -9 -15 -20 -17 -25 -9 -21 -253 -379 -261 -382 -4 -2
-8 -8 -8 -12 0 -8 -65 -107 -88 -135 -5 -6 -25 -37 -46 -70 -21 -33 -43 -61
-47 -63 -5 -2 -9 -10 -9 -17 0 -8 -8 -20 -17 -27 -10 -7 -19 -18 -20 -25 -5
-23 -96 -144 -103 -136 -25 28 -203 300 -203 310 0 7 -2 11 -5 8 -6 -6 -42 40
-42 54 0 6 -4 11 -8 11 -5 0 -15 12 -23 28 -8 15 -16 29 -19 32 -9 8 -40 59
-42 67 0 5 -6 13 -13 18 -16 14 -125 174 -125 185 0 5 -3 10 -8 12 -4 2 -34
43 -67 93 -33 49 -66 96 -73 104 -7 7 -11 20 -8 28 3 8 1 11 -4 8 -5 -3 -19 9
-30 27 -84 141 -204 228 -330 241 -19 2 -39 3 -45 1z"/>
<path d="M1635 2951 c-3 -5 -2 -12 3 -15 5 -3 9 1 9 9 0 17 -3 19 -12 6z"/>
<path d="M1596 2912 c-3 -5 1 -9 9 -9 8 0 12 4 9 9 -3 4 -7 8 -9 8 -2 0 -6 -4
-9 -8z"/>
<path d="M3735 2910 c3 -5 8 -10 11 -10 2 0 4 5 4 10 0 6 -5 10 -11 10 -5 0
-7 -4 -4 -10z"/>
<path d="M1450 2676 c0 -2 7 -7 16 -10 8 -3 12 -2 9 4 -6 10 -25 14 -25 6z"/>
<path d="M2054 2346 c1 -8 5 -18 8 -22 4 -3 5 1 4 10 -1 8 -5 18 -8 22 -4 3
-5 -1 -4 -10z"/>
<path d="M1230 2331 c0 -6 4 -13 10 -16 6 -3 7 1 4 9 -7 18 -14 21 -14 7z"/>
<path d="M4170 2269 c0 -5 5 -7 10 -4 6 3 10 8 10 11 0 2 -4 4 -10 4 -5 0 -10
-5 -10 -11z"/>
<path d="M4215 2230 c3 -5 8 -10 11 -10 2 0 4 5 4 10 0 6 -5 10 -11 10 -5 0
-7 -4 -4 -10z"/>
<path d="M3233 2192 c-15 -9 -52 -91 -53 -114 0 -24 28 -48 57 -48 l25 0 -27
-31 c-26 -32 -27 -52 -2 -31 8 7 17 9 20 5 4 -3 7 1 7 10 0 9 4 17 8 17 13 0
92 75 92 87 0 7 -14 6 -37 -3 -69 -24 -113 -16 -113 22 0 29 26 45 57 33 20
-7 23 -5 23 14 0 37 -29 57 -57 39z"/>
<path d="M1106 2168 c3 -4 9 -8 15 -8 5 0 9 4 9 8 0 5 -7 9 -15 9 -8 0 -12 -4
-9 -9z"/>
<path d="M2480 2170 c-9 -6 -10 -10 -3 -10 6 0 15 5 18 10 8 12 4 12 -15 0z"/>
<path d="M2960 2170 c-9 -6 -10 -10 -3 -10 6 0 15 5 18 10 8 12 4 12 -15 0z"/>
<path d="M1057 2125 c-4 -8 -3 -16 1 -19 4 -3 9 4 9 15 2 23 -3 25 -10 4z"/>
<path d="M3276 2112 c-3 -4 4 -9 15 -9 23 -2 25 3 4 10 -8 4 -16 3 -19 -1z"/>
<path d="M4413 2035 c0 -8 4 -12 9 -9 5 3 6 10 3 15 -9 13 -12 11 -12 -6z"/>
<path d="M3291 1984 c-52 -53 -53 -55 -36 -74 16 -18 18 -46 19 -277 l2 -258
44 -3 c25 -1 159 -3 298 -5 l252 -2 1 75 c0 41 1 117 3 168 1 52 -2 96 -6 98
-3 2 -22 -2 -40 -10 -18 -8 -57 -22 -87 -31 -87 -26 -142 -81 -146 -145 -5
-59 4 -55 -107 -54 -57 1 -108 2 -114 3 -7 1 -11 19 -10 46 1 25 -2 45 -7 45
-4 0 -3 8 2 18 7 13 6 23 -1 30 -9 9 -9 12 0 12 7 0 9 7 3 22 -4 12 -5 39 -1
60 5 23 3 38 -3 38 -5 0 -4 7 3 15 10 12 10 18 0 30 -8 10 -9 15 -2 15 6 0 9
7 6 14 -10 26 -10 170 -1 184 6 8 5 12 -2 12 -7 0 -10 4 -6 9 3 5 2 12 -2 14
-5 3 -32 -20 -62 -49z m498 -449 c1 -36 -2 -65 -6 -66 -46 -5 -61 -3 -56 6 3
5 0 5 -7 -2 -21 -20 -50 2 -44 33 9 50 48 85 105 93 3 1 7 -28 8 -64z"/>
<path d="M4457 2019 c7 -7 15 -10 18 -7 3 3 -2 9 -12 12 -14 6 -15 5 -6 -5z"/>
<path d="M1915 2003 c-11 -3 -33 -17 -48 -31 -22 -21 -26 -32 -22 -57 9 -41
37 -63 75 -59 17 2 29 0 26 -4 -7 -11 31 -8 41 3 5 4 3 6 -2 2 -6 -3 -16 -2
-23 2 -9 5 -6 14 10 31 13 14 22 26 20 28 -9 8 6 25 16 18 32 -20 2 -87 -65
-149 -162 -146 -202 -209 -207 -323 -3 -87 15 -144 64 -195 20 -21 35 -41 33
-44 -1 -3 0 -3 3 0 4 2 16 -1 28 -7 11 -7 25 -12 29 -13 4 0 12 -7 17 -15 5
-8 10 -10 10 -5 0 6 17 9 41 7 49 -5 117 19 149 53 13 13 27 22 32 19 5 -3 8
-2 7 3 -4 14 13 43 21 38 5 -3 6 4 3 15 -3 11 -1 20 4 20 8 0 12 15 15 58 1 6
6 12 12 12 6 0 6 4 -2 12 -7 7 -8 17 -2 29 7 11 7 20 0 24 -5 3 -10 15 -10 27
0 33 -38 91 -77 116 -43 29 -87 34 -132 16 -18 -8 -38 -11 -44 -7 -5 3 -7 1
-3 -5 3 -6 -3 -17 -15 -25 -35 -25 -49 -81 -33 -139 23 -89 62 -122 95 -80 13
15 12 16 -3 4 -14 -11 -17 -10 -24 10 -21 62 16 127 76 134 92 11 107 -142 21
-220 -32 -29 -109 -33 -159 -7 -48 25 -97 91 -89 121 3 12 1 18 -5 14 -7 -4
-8 12 -5 47 12 113 25 135 142 248 47 44 83 81 80 81 -4 0 3 12 14 26 42 54
15 131 -55 160 -19 8 -35 13 -36 13 -2 -1 -12 -3 -23 -6z"/>
<path d="M5315 1950 c-3 -5 -1 -10 4 -10 6 0 11 5 11 10 0 6 -2 10 -4 10 -3 0
-8 -4 -11 -10z"/>
<path d="M213 1935 c0 -8 3 -13 5 -10 3 3 12 -1 21 -7 10 -8 9 -4 -3 10 -23
26 -23 26 -23 7z"/>
<path d="M655 1930 c-3 -6 1 -7 9 -4 18 7 21 14 7 14 -6 0 -13 -4 -16 -10z"/>
<path d="M4736 1917 c3 -10 9 -15 12 -12 3 3 0 11 -7 18 -10 9 -11 8 -5 -6z"/>
<path d="M296 1908 c3 -5 10 -6 15 -3 13 9 11 12 -6 12 -8 0 -12 -4 -9 -9z"/>
<path d="M540 1910 c-9 -6 -10 -10 -3 -10 6 0 15 5 18 10 8 12 4 12 -15 0z"/>
<path d="M5196 1908 c3 -4 11 -5 19 -1 21 7 19 12 -4 10 -11 0 -18 -5 -15 -9z"/>
<path d="M4933 1895 c0 -8 4 -12 9 -9 5 3 6 10 3 15 -9 13 -12 11 -12 -6z"/>
<path d="M5076 1888 c3 -5 10 -6 15 -3 13 9 11 12 -6 12 -8 0 -12 -4 -9 -9z"/>
<path d="M2580 1709 c-14 -6 -47 -12 -75 -15 -60 -6 -83 -25 -87 -73 -2 -20
-7 -36 -13 -36 -56 -3 -75 -39 -75 -140 0 -83 -4 -79 77 -77 22 0 31 -4 26
-12 -5 -8 -2 -7 8 1 16 13 81 15 73 2 -2 -4 1 -11 7 -15 7 -4 9 -3 5 4 -3 6
-1 14 5 18 19 11 0 -66 -23 -99 -27 -38 -93 -67 -142 -62 -52 4 -33 -14 31
-30 42 -11 54 -10 98 6 49 19 103 65 120 104 8 19 11 33 14 69 1 10 11 14 34
12 17 -2 42 1 53 5 12 4 25 5 28 2 8 -8 366 -7 374 1 3 4 7 58 7 121 1 63 4
117 8 121 3 4 3 12 -1 18 -4 6 -8 22 -8 36 -1 14 -2 28 -3 31 -1 7 -113 -27
-175 -54 -59 -26 -94 -74 -97 -134 -3 -48 -8 -52 -66 -47 -33 2 -43 -1 -46
-14 -4 -15 -5 -14 -6 2 -1 13 -6 17 -21 13 -11 -3 -20 -1 -20 4 0 5 -12 4 -27
-2 -20 -7 -28 -6 -35 3 -4 7 -8 66 -8 131 0 64 -3 117 -7 116 -5 0 -19 -5 -33
-10z m-46 -125 c3 -9 6 -38 6 -65 l0 -49 -37 1 c-21 1 -42 0 -48 -1 -5 -1 -18
-2 -29 -1 -16 1 -17 3 -5 18 12 15 12 16 -1 8 -9 -5 -7 1 5 14 10 12 27 20 35
18 13 -3 16 1 12 19 -8 41 48 75 62 38z m507 0 c6 -3 5 -12 -3 -22 -11 -13
-11 -14 0 -8 11 7 12 4 3 -11 -6 -11 -7 -23 -4 -27 14 -14 10 -37 -8 -46 -14
-8 -19 -7 -19 2 0 8 -3 9 -10 2 -6 -6 -24 -9 -40 -6 -24 3 -30 9 -30 29 0 34
18 65 33 57 7 -4 9 -4 5 1 -19 20 47 46 73 29z"/>
<path d="M2995 1531 c-3 -5 -2 -12 3 -15 5 -3 9 1 9 9 0 17 -3 19 -12 6z"/>
<path d="M1835 1501 c-3 -5 -2 -12 3 -15 5 -3 9 1 9 9 0 17 -3 19 -12 6z"/>
<path d="M2010 1469 c0 -5 5 -7 10 -4 6 3 10 8 10 11 0 2 -4 4 -10 4 -5 0 -10
-5 -10 -11z"/>
<path d="M2210 1390 c0 -5 5 -10 11 -10 5 0 7 5 4 10 -3 6 -8 10 -11 10 -2 0
-4 -4 -4 -10z"/>
<path d="M2210 1350 c0 -5 5 -10 11 -10 5 0 7 5 4 10 -3 6 -8 10 -11 10 -2 0
-4 -4 -4 -10z"/>
<path d="M3126 1348 c3 -5 10 -6 15 -3 13 9 11 12 -6 12 -8 0 -12 -4 -9 -9z"/>
<path d="M2730 1346 c0 -2 8 -10 18 -17 15 -13 16 -12 3 4 -13 16 -21 21 -21
13z"/>
<path d="M3473 1335 c0 -8 4 -12 9 -9 5 3 6 10 3 15 -9 13 -12 11 -12 -6z"/>
<path d="M3794 1336 c1 -8 5 -18 8 -22 4 -3 5 1 4 10 -1 8 -5 18 -8 22 -4 3
-5 -1 -4 -10z"/>
<path d="M3834 1339 c-3 -6 -2 -15 3 -20 5 -5 9 -1 9 11 0 23 -2 24 -12 9z"/>
<path d="M2426 1328 c3 -5 10 -6 15 -3 13 9 11 12 -6 12 -8 0 -12 -4 -9 -9z"/>
<path d="M2795 1331 c-3 -5 -2 -12 3 -15 5 -3 9 1 9 9 0 17 -3 19 -12 6z"/>
<path d="M3505 1330 c-3 -6 1 -7 9 -4 18 7 21 14 7 14 -6 0 -13 -4 -16 -10z"/>
<path d="M3760 1330 c-9 -6 -10 -10 -3 -10 6 0 15 5 18 10 8 12 4 12 -15 0z"/>
<path d="M2195 1310 c3 -5 8 -10 11 -10 2 0 4 5 4 10 0 6 -5 10 -11 10 -5 0
-7 -4 -4 -10z"/>
<path d="M2855 1311 c-3 -5 -2 -12 3 -15 5 -3 9 1 9 9 0 17 -3 19 -12 6z"/>
<path d="M2576 1185 c-9 -26 -7 -32 5 -12 6 10 9 21 6 23 -2 3 -7 -2 -11 -11z"/>
<path d="M1975 1150 c-3 -5 -1 -10 4 -10 6 0 11 5 11 10 0 6 -2 10 -4 10 -3 0
-8 -4 -11 -10z"/>
<path d="M2030 1156 c0 -2 7 -7 16 -10 8 -3 12 -2 9 4 -6 10 -25 14 -25 6z"/>
</g>
</svg>
